# xmcd
#
# Track frame offsets: 
#        150
#        18746
#        33408
#        50736
#        69865
#        91824
#        109752
#        126120
#        140288
#        159214
#        178246
#        193749
#
# Disc length: 2940 seconds
#
# Revision: 0
# Processed by: cddbd v1.5.2PL0 Copyright (c) Steve Scherf et al.
# Submitted via: ExactAudioCopy v1.0b3
#
DISCID=a00b7a0c
DTITLE=The Talleys - The Test of Time
DYEAR=2014
DGENRE=Gospel
TTITLE0=Bless the Lord - My Tribute
TTITLE1=When He Calls (I'll Fly Away)
TTITLE2=Isn't the Love of Jesus Something Wonderful
TTITLE3=Hidden Heroes
TTITLE4=And He's Ever Interceding
TTITLE5=I Go to the Rock
TTITLE6=What You Leave Behind
TTITLE7=God Rides on Wings of Love
TTITLE8=Great Is Thy Faithfulness
TTITLE9=Serenaded by Angels
TTITLE10=Jesus Is Alive and Well
TTITLE11=Holy Ground 
EXTD=
EXTT0=
EXTT1=
EXTT2=
EXTT3=
EXTT4=
EXTT5=
EXTT6=
EXTT7=
EXTT8=
EXTT9=
EXTT10=
EXTT11=
PLAYORDER=
